<svg width="40" height="41" viewBox="0 0 40 41" fill="none" xmlns="http://www.w3.org/2000/svg">
<rect y="0.392944" width="40" height="40" rx="20" fill="#F0B90B"/>
<path d="M10.8416 20.393L10.856 25.6815L15.3496 28.3257V31.4219L8.22621 27.244V18.8465L10.8416 20.393ZM10.8416 15.1045V18.1863L8.22461 16.6382V13.5565L10.8416 12.0084L13.4714 13.5565L10.8416 15.1045ZM17.2262 13.5565L19.8432 12.0084L22.473 13.5565L19.8432 15.1045L17.2262 13.5565Z" fill="white"/>
<path d="M12.7324 24.5853V21.4892L15.3494 23.0372V26.119L12.7324 24.5853ZM17.226 29.4347L19.843 30.9828L22.4728 29.4347V32.5164L19.843 34.0645L17.226 32.5164V29.4347ZM26.226 13.5565L28.843 12.0084L31.4728 13.5565V16.6382L28.843 18.1863V15.1045L26.226 13.5565ZM28.843 25.6815L28.8574 20.393L31.4744 18.8449V27.2424L24.351 31.4203V28.3241L28.843 25.6815Z" fill="white"/>
<path d="M26.9666 24.5853L24.3496 26.119V23.0372L26.9666 21.4892V24.5853Z" fill="white"/>
<path d="M26.9664 16.2007L26.9808 19.2968L22.4744 21.9411V27.2424L19.8574 28.776L17.2404 27.2424V21.9411L12.734 19.2968V16.2007L15.3622 14.6526L19.8414 17.3097L24.3478 14.6526L26.9776 16.2007H26.9664ZM12.7324 10.9138L19.843 6.72153L26.9664 10.9138L24.3494 12.4619L19.843 9.80486L15.3494 12.4619L12.7324 10.9138Z" fill="white"/>
</svg>
