<svg width="40" height="41" viewBox="0 0 40 41" fill="none" xmlns="http://www.w3.org/2000/svg">
<rect y="0.392944" width="40" height="40" rx="20" fill="#496CF4"/>
<path d="M10.6885 5.08044H20.0784H20.0896H29.4865V20.6656V20.678V35.6814C29.4705 35.6916 29.4531 35.7002 29.4344 35.7034C29.3049 35.7256 29.1406 35.7074 29.0079 35.7076L28.0112 35.7077L24.3349 35.7076L10.8919 35.7074C10.8264 35.7074 10.7453 35.7176 10.6885 35.6814V20.6796V20.6609V5.08044ZM20.0937 26.2052C20.0661 26.2102 20.0523 26.2099 20.0266 26.1973C19.7283 26.0503 19.417 25.8384 19.1272 25.6672L17.2373 24.5493L13.0463 22.0722C12.2609 21.6077 11.4798 21.1338 10.6885 20.6796V35.6814C10.7453 35.7176 10.8264 35.7074 10.8919 35.7074L24.3349 35.7076L28.0112 35.7077L29.0079 35.7076C29.1406 35.7074 29.3049 35.7256 29.4344 35.7034C29.4531 35.7002 29.4705 35.6916 29.4865 35.6814V20.678C29.1133 20.8791 28.7516 21.1085 28.387 21.3251L26.6182 22.3725L22.2142 24.9746L20.8486 25.7822C20.6216 25.9163 20.3961 26.0624 20.1637 26.1864C20.1412 26.1983 20.1197 26.21 20.0937 26.2052ZM20.0896 5.08044C20.3488 5.56541 20.6595 6.03413 20.9434 6.50606L22.6787 9.3858L27.0847 16.6987L28.6272 19.2583C28.9097 19.7269 29.2007 20.1923 29.4739 20.6662L29.4865 20.6656V5.08044H20.0896ZM10.6885 5.08044V20.6609L10.6999 20.6626C10.8002 20.4602 10.9352 20.2652 11.0527 20.0716L11.6676 19.0495L13.6969 15.6816L20.0735 5.09819L20.0784 5.08044H10.6885Z" fill="white" fill-opacity="0.5"/>
<path d="M20.0918 16.4064C20.3636 16.5147 20.6302 16.6486 20.897 16.77L22.486 17.4928L27.136 19.6067C27.9142 19.9605 28.689 20.328 29.4743 20.6661L29.4869 20.6655V20.6779C29.1137 20.8791 28.752 21.1085 28.3874 21.325L26.6186 22.3725L22.2146 24.9746L20.849 25.7821C20.622 25.9163 20.3965 26.0624 20.1641 26.1863C20.1416 26.1983 20.1201 26.21 20.0941 26.2052C20.0729 25.8493 20.0915 25.4817 20.0916 25.1249L20.0918 22.992V16.4064Z" fill="white" fill-opacity="0.2"/>
<path d="M20.0738 5.09821C20.1153 5.3478 20.0825 5.80078 20.0824 6.06982L20.0832 8.26828L20.0831 16.4032L13.2388 19.5155C12.5952 19.8066 11.9552 20.1066 11.3088 20.3915C11.1139 20.4773 10.9043 20.607 10.7002 20.6626C10.8005 20.4603 10.9355 20.2653 11.053 20.0716L11.6679 19.0495L13.6972 15.6816L20.0738 5.09821Z" fill="white" fill-opacity="0.8"/>
<path d="M10.6895 22.4567C11.3004 22.8277 11.9209 23.1848 12.5364 23.5485L16.1888 25.7071L18.7322 27.2102C19.1612 27.4637 19.587 27.7301 20.0227 27.9718C20.0428 27.9829 20.0577 27.9853 20.0802 27.9874C20.0927 28.7109 20.1015 35.6045 20.0691 35.6633C19.9814 35.6017 19.6015 35.0213 19.5078 34.8891L18.0345 32.8116L10.6895 22.4567Z" fill="white" fill-opacity="0.8"/>
<path d="M20.0804 27.9873C20.1122 27.9897 20.1268 27.983 20.154 27.9677C20.5816 27.7304 20.9997 27.4697 21.4209 27.221L23.9059 25.7533C25.7649 24.6551 27.6369 23.5744 29.4847 22.4574L21.9641 33.0526L20.4665 35.1626C20.4039 35.2508 20.1567 35.6336 20.1069 35.6703C20.1008 35.6748 20.0923 35.6745 20.085 35.6766L20.0693 35.6632C20.1018 35.6045 20.093 28.7108 20.0804 27.9873Z" fill="white" fill-opacity="0.5"/>
</svg>
