<svg width="40" height="41" viewBox="0 0 40 41" fill="none" xmlns="http://www.w3.org/2000/svg">
<rect y="0.375" width="40" height="40" rx="20" fill="white"/>
<path d="M7.61328 13.9531V26.0884C7.61328 26.8685 8.02192 27.5743 8.70298 27.9706L19.216 34.0382C19.8847 34.4221 20.7144 34.4221 21.3831 34.0382L31.8961 27.9706C32.5648 27.5867 32.9858 26.8685 32.9858 26.0884V13.9531C32.9858 13.173 32.5772 12.4672 31.8961 12.0709L21.3831 6.00333C20.7144 5.61946 19.8847 5.61946 19.216 6.00333L8.70298 12.0709C8.0343 12.4548 7.62566 13.173 7.62566 13.9531H7.61328Z" fill="#213147"/>
<path d="M22.5838 22.3732L21.0855 26.4843C21.0483 26.5958 21.0483 26.7196 21.0855 26.8434L23.6611 33.9141L26.6454 32.1929L23.0667 22.3732C22.9801 22.1503 22.6705 22.1503 22.5838 22.3732Z" fill="#12AAFF"/>
<path d="M25.5921 15.4635C25.5055 15.2406 25.1959 15.2406 25.1092 15.4635L23.6109 19.5746C23.5737 19.6861 23.5737 19.8099 23.6109 19.9337L27.8334 31.5117L30.8177 29.7905L25.5921 15.4759V15.4635Z" fill="#12AAFF"/>
<path d="M20.2925 6.4614C20.3668 6.4614 20.4411 6.48617 20.503 6.52332L31.8705 13.0862C32.0067 13.1605 32.081 13.3091 32.081 13.4577V26.5836C32.081 26.7322 31.9943 26.8808 31.8705 26.9551L20.503 33.518C20.4411 33.5552 20.3668 33.5799 20.2925 33.5799C20.2182 33.5799 20.1439 33.5552 20.082 33.518L8.71451 26.9551C8.57829 26.8808 8.504 26.7322 8.504 26.5836V13.4454C8.504 13.2968 8.59068 13.1482 8.71451 13.0739L20.082 6.51093C20.1439 6.47378 20.2182 6.44902 20.2925 6.44902V6.4614ZM20.2925 4.54205C19.8839 4.54205 19.4876 4.64112 19.1161 4.85163L7.74864 11.4146C7.01805 11.8356 6.57227 12.6033 6.57227 13.4454V26.5712C6.57227 27.4133 7.01805 28.181 7.74864 28.602L19.1161 35.1649C19.4752 35.3755 19.8839 35.4745 20.2925 35.4745C20.7011 35.4745 21.0974 35.3755 21.4689 35.1649L32.8364 28.602C33.567 28.181 34.0127 27.4133 34.0127 26.5712V13.4454C34.0127 12.6033 33.567 11.8356 32.8364 11.4146L21.4565 4.85163C21.0974 4.64112 20.6888 4.54205 20.2801 4.54205H20.2925Z" fill="#9DCCED"/>
<path d="M12.7646 31.5243L13.8172 28.6515L15.9223 30.3974L13.9534 32.2053L12.7646 31.5243Z" fill="#213147"/>
<path d="M19.3265 12.5166H16.4413C16.2308 12.5166 16.0327 12.6528 15.9584 12.851L9.7793 29.7908L12.7636 31.512L19.5742 12.851C19.6361 12.6776 19.5122 12.5042 19.3389 12.5042L19.3265 12.5166Z" fill="white"/>
<path d="M24.3795 12.5166H21.4943C21.2838 12.5166 21.0857 12.6528 21.0114 12.8509L13.9531 32.193L16.9374 33.9142L24.6148 12.8509C24.6767 12.6776 24.5529 12.5042 24.3795 12.5042V12.5166Z" fill="white"/>
</svg>
