<svg width="40" height="40" viewBox="0 0 40 40" fill="none" xmlns="http://www.w3.org/2000/svg">
<rect width="40" height="40" rx="20" fill="white"/>
<g clip-path="url(#clip0_1157_2806)">
<path d="M24.7524 14.9696L20.9754 8.43974C20.552 7.70767 19.4934 7.70767 19.07 8.43974L6.42148 30.3058C5.99808 31.0379 6.52729 31.9529 7.37428 31.9529H14.9287C15.7708 31.9529 16.5492 31.5046 16.9703 30.7764L24.7524 17.3228C25.1736 16.5947 25.1736 15.6978 24.7524 14.9698V14.9696Z" fill="#FF394A"/>
<path d="M33.6242 30.3059L29.1031 22.4898C28.6795 21.7579 27.6209 21.7579 27.1975 22.4898L22.6764 30.3059C22.2529 31.038 22.7822 31.953 23.6291 31.953H32.6714C33.5184 31.953 34.0476 31.038 33.6242 30.3059Z" fill="#FF394A"/>
</g>
<defs>
<clipPath id="clip0_1157_2806">
<rect width="27.5" height="24.0625" fill="white" transform="translate(6.27246 7.89056)"/>
</clipPath>
</defs>
</svg>
