<svg width="40" height="41" viewBox="0 0 40 41" fill="none" xmlns="http://www.w3.org/2000/svg">
<rect y="0.125" width="40" height="40" rx="20" fill="white"/>
<path d="M29.9177 17.8068C30.3159 15.1456 28.2896 13.7149 25.519 12.7606L26.4177 9.15556L24.2234 8.60869L23.3484 12.1187C22.7715 11.9749 22.179 11.8393 21.5902 11.7049L22.4715 8.17181L20.2784 7.62494L19.379 11.2287C18.9015 11.1199 18.4327 11.0124 17.9777 10.8993L17.9802 10.8881L14.954 10.1324L14.3702 12.4762C14.3702 12.4762 15.9984 12.8493 15.964 12.8724C16.8527 13.0943 17.0134 13.6824 16.9865 14.1487L15.9627 18.2556C16.024 18.2712 16.1034 18.2937 16.1909 18.3287C16.1177 18.3106 16.0396 18.2906 15.959 18.2712L14.524 24.0243C14.4152 24.2943 14.1396 24.6993 13.5184 24.5456C13.5402 24.5774 11.9234 24.1474 11.9234 24.1474L10.834 26.6593L13.6896 27.3712C14.2209 27.5043 14.7415 27.6437 15.254 27.7749L14.3459 31.4212L16.5377 31.9681L17.4371 28.3606C18.0359 28.5231 18.6171 28.6731 19.1859 28.8143L18.2896 32.4049L20.484 32.9518L21.3921 29.3124C25.134 30.0206 27.9477 29.7349 29.1321 26.3506C30.0865 23.6256 29.0846 22.0537 27.1159 21.0287C28.5496 20.6981 29.6296 19.7549 29.9177 17.8068ZM24.904 24.8374C24.2259 27.5624 19.6377 26.0893 18.1502 25.7199L19.3552 20.8893C20.8427 21.2606 25.6127 21.9956 24.904 24.8374ZM25.5827 17.7674C24.964 20.2462 21.1452 18.9868 19.9065 18.6781L20.999 14.2968C22.2377 14.6056 26.2271 15.1818 25.5827 17.7674Z" fill="#F7931A"/>
</svg>
