<svg width="40" height="41" viewBox="0 0 40 41" fill="none" xmlns="http://www.w3.org/2000/svg">
<rect y="0.25" width="40" height="40" rx="20" fill="white"/>
<path d="M13.5743 22.4477C14.4844 22.4477 15.3724 22.1444 16.0901 21.5894L10.3186 15.8179C8.92755 17.616 9.26052 20.2057 11.0586 21.5968C11.7837 22.1444 12.6642 22.4477 13.5743 22.4477Z" fill="#047A5B"/>
<path d="M30.7401 18.3262C30.7401 17.4161 30.4368 16.5282 29.8818 15.8104L24.1104 21.5819C25.9084 22.973 28.4908 22.64 29.8818 20.842C30.4368 20.1242 30.7401 19.2363 30.7401 18.3262Z" fill="#047A5B"/>
<path d="M33.6483 12.0442L31.0956 14.597C33.1526 17.0609 32.827 20.731 30.363 22.788C28.2024 24.5934 25.0651 24.5934 22.9045 22.788L20.1002 25.5923L17.3032 22.7954C14.8393 24.8524 11.1692 24.5268 9.11218 22.0629C7.30675 19.9023 7.30675 16.765 9.11218 14.6044L7.8025 13.2947L6.55941 12.0442C5.05735 14.5156 4.26562 17.3569 4.26562 20.25C4.26562 28.996 11.3542 36.0846 20.1002 36.0846C28.8462 36.0846 35.9347 28.996 35.9347 20.25C35.9421 17.3569 35.143 14.5156 33.6483 12.0442Z" fill="#047A5B"/>
<path d="M31.5534 9.32132C25.5229 2.9949 15.5042 2.75812 9.17781 8.78857C8.99282 8.96615 8.81524 9.14374 8.64505 9.32132C8.25289 9.73568 7.88292 10.1648 7.53516 10.6162L20.0992 23.1876L32.6632 10.6162C32.3229 10.1648 31.9455 9.73568 31.5534 9.32132ZM20.0992 6.48738C23.7989 6.48738 27.2469 7.91545 29.8367 10.52L20.0992 20.2575L10.3617 10.52C12.9515 7.91545 16.3995 6.48738 20.0992 6.48738Z" fill="#047A5B"/>
</svg>
