<svg width="40" height="41" viewBox="0 0 40 41" fill="none" xmlns="http://www.w3.org/2000/svg">
<rect y="0.8125" width="40" height="40" rx="20" fill="white"/>
<path d="M11.4809 28.3625C9.82107 28.3625 8.46201 27.9726 7.40372 27.1928C6.35658 26.4019 5.83301 25.2656 5.83301 23.8063C5.83301 23.4944 5.86643 23.1268 5.93327 22.6812C6.1115 21.6786 6.36772 20.4755 6.70191 19.0607C7.6488 15.2286 10.0996 13.3126 14.0431 13.3126C15.1125 13.3126 16.0817 13.4908 16.9283 13.8584C17.7749 14.2037 18.4433 14.7385 18.9335 15.4514C19.4236 16.1532 19.6687 16.9887 19.6687 17.9579C19.6687 18.2475 19.6353 18.6151 19.5684 19.0607C19.3568 20.2972 19.1117 21.5115 18.8109 22.6812C18.3208 24.5861 17.4853 26.0231 16.2822 26.97C15.0902 27.9057 13.4861 28.3625 11.4809 28.3625ZM11.7817 25.3547C12.5615 25.3547 13.2187 25.1208 13.7646 24.6641C14.3216 24.2073 14.7226 23.5055 14.9565 22.5475C15.2796 21.233 15.5247 20.0967 15.6918 19.1164C15.7475 18.8268 15.7809 18.526 15.7809 18.2141C15.7809 16.9441 15.1236 16.3092 13.798 16.3092C13.0182 16.3092 12.3498 16.5431 11.7928 16.9998C11.247 17.4566 10.8571 18.1584 10.6231 19.1164C10.3669 20.0522 10.1218 21.1884 9.86563 22.5475C9.80993 22.826 9.77651 23.1156 9.77651 23.4275C9.76537 24.7198 10.4449 25.3547 11.7817 25.3547Z" fill="#FF0420"/>
<path d="M20.6377 28.1618C20.4818 28.1618 20.3704 28.1173 20.2812 28.017C20.2144 27.9056 20.1921 27.7831 20.2144 27.6382L23.0996 14.0477C23.1219 13.8917 23.1999 13.7692 23.3336 13.6689C23.4561 13.5686 23.5898 13.5241 23.7346 13.5241H29.2934C30.8418 13.5241 32.0783 13.8471 33.0141 14.4821C33.961 15.1282 34.44 16.0528 34.44 17.2671C34.44 17.6124 34.3954 17.98 34.3174 18.3588C33.9721 19.9629 33.2703 21.1437 32.2009 21.9124C31.1537 22.681 29.7167 23.0598 27.8898 23.0598H25.0714L24.1134 27.6382C24.0799 27.7942 24.0131 27.9167 23.8794 28.017C23.7569 28.1173 23.6232 28.1618 23.4784 28.1618H20.6377ZM28.0346 20.1746C28.625 20.1746 29.1263 20.0186 29.5607 19.6955C30.0063 19.3725 30.296 18.9158 30.4408 18.3142C30.4853 18.0803 30.5076 17.8686 30.5076 17.6904C30.5076 17.2893 30.3851 16.9774 30.1511 16.7658C29.9172 16.543 29.505 16.4316 28.9369 16.4316H26.4304L25.6395 20.1746H28.0346Z" fill="#FF0420"/>
</svg>
