<svg width="40" height="41" viewBox="0 0 40 41" fill="none" xmlns="http://www.w3.org/2000/svg">
<rect y="0.25" width="40" height="40" rx="20" fill="white"/>
<path d="M29.8969 25.3162L26.6319 28.8168C26.5611 28.8927 26.4755 28.9532 26.3805 28.9947C26.2854 29.0362 26.1828 29.0578 26.079 29.0581H10.6009C10.5273 29.0577 10.4553 29.0359 10.3938 28.9954C10.3323 28.9548 10.2838 28.8973 10.2544 28.8298C10.225 28.7623 10.2158 28.6877 10.2279 28.615C10.2401 28.5424 10.2731 28.4748 10.3229 28.4206L13.5839 24.9199C13.6547 24.844 13.7402 24.7835 13.8353 24.742C13.9304 24.7005 14.033 24.6789 14.1367 24.6787H29.6148C29.6893 24.6772 29.7626 24.6977 29.8254 24.7377C29.8882 24.7778 29.9378 24.8355 29.9679 24.9036C29.9981 24.9717 30.0074 25.0472 29.9948 25.1206C29.9821 25.194 29.948 25.262 29.8969 25.3162ZM26.6319 18.2645C26.5608 18.189 26.4752 18.1287 26.3802 18.0873C26.2852 18.0458 26.1827 18.024 26.079 18.0233H10.6009C10.5271 18.0233 10.4549 18.0449 10.3932 18.0853C10.3314 18.1258 10.2828 18.1834 10.2533 18.251C10.2238 18.3187 10.2147 18.3935 10.227 18.4663C10.2394 18.539 10.2727 18.6066 10.3229 18.6608L13.5839 22.1638C13.655 22.2393 13.7406 22.2996 13.8356 22.3411C13.9306 22.3825 14.0331 22.4043 14.1367 22.4051H29.6148C29.6884 22.4044 29.7601 22.3824 29.8214 22.3417C29.8827 22.3011 29.9309 22.2436 29.9601 22.1761C29.9894 22.1086 29.9984 22.0341 29.9862 21.9616C29.974 21.8891 29.941 21.8217 29.8913 21.7676L26.6319 18.2645ZM10.6009 15.7497H26.079C26.1828 15.7494 26.2854 15.7278 26.3805 15.6863C26.4755 15.6448 26.5611 15.5843 26.6319 15.5084L29.8969 12.007C29.9348 11.9664 29.9634 11.9179 29.9806 11.865C29.9978 11.8121 30.0031 11.7561 29.9963 11.7009C29.9894 11.6458 29.9705 11.5928 29.9409 11.5457C29.9113 11.4986 29.8717 11.4587 29.825 11.4286C29.7623 11.3885 29.6892 11.3679 29.6148 11.3695H14.1367C14.033 11.3698 13.9304 11.3913 13.8353 11.4328C13.7402 11.4743 13.6547 11.5349 13.5839 11.6107L10.3229 15.1122C10.2727 15.1663 10.2394 15.2339 10.227 15.3067C10.2147 15.3794 10.2238 15.4542 10.2533 15.5219C10.2828 15.5896 10.3314 15.6471 10.3932 15.6876C10.4549 15.7281 10.5271 15.7496 10.6009 15.7497Z" fill="url(#paint0_linear_1157_2840)"/>
<defs>
<linearGradient id="paint0_linear_1157_2840" x1="11.8911" y1="29.4807" x2="28.1202" y2="11.1833" gradientUnits="userSpaceOnUse">
<stop offset="0.08" stop-color="#9945FF"/>
<stop offset="0.3" stop-color="#8752F3"/>
<stop offset="0.5" stop-color="#5497D5"/>
<stop offset="0.6" stop-color="#43B4CA"/>
<stop offset="0.72" stop-color="#28E0B9"/>
<stop offset="0.97" stop-color="#19FB9B"/>
</linearGradient>
</defs>
</svg>
